/* XPM */
static char *_6d806a44fd54e44bd2ffb9f7898fc1aCx750jEQ4IYZZz5V[] = {
/* columns rows colors chars-per-pixel */
"36 36 205 2 ",
"   c gray12",
".  c #14191B",
"X  c #181F21",
"o  c #1A2123",
"O  c #1C2325",
"+  c #292F30",
"@  c #3D4543",
"#  c #3F4645",
"$  c #3B4341",
"%  c #353E3C",
"&  c #2F3837",
"*  c #1C2224",
"=  c #1A2022",
"-  c #303737",
";  c #555958",
":  c #6A6B6B",
">  c #696A6A",
",  c #4F5453",
"<  c #3E4644",
"1  c #3B4442",
"2  c #2D3635",
"3  c #1A2023",
"4  c #2A3231",
"5  c #333B3A",
"6  c #323B39",
"7  c #333C3A",
"8  c #434948",
"9  c #616363",
"0  c #646666",
"q  c #656666",
"w  c #656767",
"e  c #545857",
"r  c #394240",
"t  c #39413F",
"y  c #373F3D",
"u  c #505554",
"i  c #636565",
"p  c #666868",
"a  c #525756",
"s  c #151A1C",
"d  c #2C3434",
"f  c #363F3D",
"g  c #474D4C",
"h  c #646665",
"j  c #686969",
"k  c #666767",
"l  c #606362",
"z  c #4B504F",
"x  c #3C4442",
"c  c #4D5352",
"v  c #414846",
"b  c #202121",
"n  c #272E2D",
"m  c #484E4D",
"M  c #626464",
"N  c #424947",
"B  c #424948",
"V  c #5A5D5D",
"C  c #6A6A6A",
"Z  c #6A6A6B",
"A  c #4E5352",
"S  c #343D3B",
"D  c #4A4D4E",
"F  c #323738",
"G  c #212221",
"H  c #2E3634",
"J  c #4D5251",
"K  c #414847",
"L  c #4E5452",
"P  c #404746",
"I  c #595D5C",
"U  c #434A48",
"Y  c #333D3B",
"T  c #6B6C6C",
"R  c #46494A",
"E  c #2B2F31",
"W  c #676868",
"Q  c #232323",
"!  c #434746",
"~  c #5B5F5E",
"^  c #5F6161",
"/  c #37403E",
"(  c #686A6A",
")  c #565A5A",
"_  c #5D6060",
"`  c #595B5B",
"'  c #252525",
"]  c #585959",
"[  c #555959",
"{  c #535757",
"}  c #38413F",
"|  c #454B4A",
" . c gray42",
".. c #585858",
"X. c #626463",
"o. c #343E3B",
"O. c #565A59",
"+. c #666867",
"@. c #444B49",
"#. c #606262",
"$. c #4A4F4E",
"%. c #3D4443",
"&. c #575B5A",
"*. c #454C4A",
"=. c gray14",
"-. c #555656",
";. c #494F4D",
":. c #4C5150",
">. c #676968",
",. c #656766",
"<. c #575A5A",
"1. c #222222",
"2. c #363C3B",
"3. c #5D605F",
"4. c #494F4E",
"5. c #505453",
"6. c #444B4A",
"7. c #5F6261",
"8. c #2E3533",
"9. c #404745",
"0. c #3A4240",
"q. c #38403F",
"w. c #2E3534",
"e. c #545958",
"r. c #404846",
"t. c #5B5E5D",
"y. c #2F3634",
"u. c #464D4B",
"i. c #2F3735",
"p. c #3F4745",
"a. c #595C5C",
"s. c #29302F",
"d. c #585C5B",
"f. c #5C5F5F",
"g. c #434A49",
"h. c #161B1D",
"j. c #515455",
"k. c #4E5152",
"l. c #3C4443",
"z. c #676969",
"x. c #686A69",
"c. c #3A4241",
"v. c #14191C",
"b. c #323A39",
"n. c #535857",
"m. c #2B3333",
"M. c #38403E",
"N. c #3F4644",
"B. c #535756",
"V. c #4B5150",
"C. c #2C3433",
"Z. c #515655",
"A. c #3E4544",
"S. c #4A504F",
"D. c #2B3433",
"F. c #343E3C",
"G. c #525655",
"H. c #4C5251",
"J. c #1F2020",
"K. c #1D2223",
"L. c #2E3736",
"P. c #585B5B",
"I. c #3D4544",
"U. c #5E6160",
"Y. c #5A5E5D",
"T. c #606161",
"R. c #242A2B",
"E. c #595C5B",
"W. c #525455",
"Q. c #3F4244",
"!. c #807C7A",
"~. c #202528",
"^. c #2B3332",
"/. c #5B5D5D",
"(. c #3C4041",
"). c #7D7775",
"_. c #1F2325",
"`. c #2A3332",
"'. c #5C5E5E",
"]. c #373C3D",
"[. c #333C3B",
"{. c #76615D",
"}. c #262A2B",
"|. c #394040",
" X c #474E4C",
".X c #706968",
"XX c #383F3D",
"oX c #3B4342",
"OX c #5D5F5F",
"+X c #696B6A",
"@X c #383F3E",
"#X c #646565",
"$X c #5A5D5C",
"%X c #373F3E",
"&X c #656A65",
"*X c #373E3C",
"=X c #616463",
"-X c #716F6F",
";X c #252B2C",
":X c #525555",
">X c #484E4C",
",X c #817371",
"<X c #393F3F",
"1X c #383C3E",
"2X c white",
/* pixels */
"  . X o o o O + @ # # # # # $ % & * = o = - ; : > > > > > > , < 1 2 o 3 ",
"  . 4 5 6 7 8 9 0 q q q q w e r t y y y y u i p > > > > > > p w a % y y ",
"  s d f % g h > > j j j > > k 9 9 9 9 9 l z x c j > > > > > > : e v l 9 ",
"b n 7 % m M > > 0 g N B V : > C C C Z > A r S r c j > > > > > : D F j : ",
"G H J K L : > i m f S S P I > > > > > j U Y % Y U j > : : : : T R E W > ",
"Q ! i I ~ > : ^ / % % % S , : > > > > ( ) < 7 < ) > W a , , , _ ` D j > ",
"' ] : : : > : ^ / % % % S , : > > > > > : [ g ; : p { } S S S | ^  .> > ",
"' ..: 9 M > > X.U f S o.x O.Z > > > > > > > > > +.; / % % % % S @.#.> > ",
"' ] : $., : > > M N %.%.&.> > > > > > > > > > W ; / % % % % % % % *.j > ",
"=.-.> ;.:.>.> > > ,.0 0 >.> > > > > > > > > : <.} % % % % % % % S @.W w ",
"1.2.3.4.} 5.> > > > > > > > > > > > > > > > : ; % % % % % % % % S 6.7.v ",
"G 8.9.0.g l > > > > > > > > > > > > > > > > : ; % % % % % % % % S 6._ q.",
"G w.S g #.: > > > > > > > > > > > > > > > > : e.S % % % % % % S r.t.0 O.",
"G y.g 7.: > > > > > : : : > > > > > > > > > > ^ u.% % % % % S r.I : > : ",
"G i.~ : > > > > > > t.&.&.l : > > > > > > > > : #.@.% S S S p.a.: > > > ",
"b s.d.: > > > > j f.@ % % 4.M > > > > > > > > > > 9 g.K K v I : > > > > ",
"  h.j.: > > > j _ x % % % % m 0 > > > > > > > > > > W W W W j > > W M M ",
"  s k.> > > Z #.l.% % % % % f g w > > > > > z.k W > > > > > > > x.I $ c.",
"  v.b.a.> > : ^ q.% % % % % % / g p > > > > n.@ z z.> > > > > : a.x % % ",
"  . m.< &.C : ^ M.% % % % % % S N.k > > > B.x S } V.W > > > > : e.S % % ",
"  . C.S , : > ,.Z.M.% % % % % S p.k > > > m 7 % S A.k > > > > > 9 S.% S ",
"  . D.S , : > > p , t F.% % % S < k > > > d.P Y $ G.z.> > > > > : X.J H.",
"J.K.L.p.d.: > > > z.H.t S S S t H.W > > > : P.| u > : : > > > > > > Z Z ",
"G w.I.a U.M > > > > j :.p.P p.:.j > > > > > > > > W ^ ^ W > > > > > > > ",
"G y.e.m f m q > > > > W p p p W > > > > > > > > j Y.0.0.Y.j > > > > > > ",
"G w.0./ % f m j > > > > > > > > > > > > > > > > V $ % % $ V > > > > > > ",
"1.8.% % % S @.j > > > > > > > > > > > > > > : I x % % % % x a.> > j > > ",
"T.R.L.% S U _ > > > > > > C C > > > > > > > : ; S % % % % F.< E.W.Q.> : ",
"!.~.^.f S 4.: > > > > : P.V.V.e.> > > > > > t.8 % % % % % % 7 , /.Q.(.z ",
")._.`.o.p.&.> > > > > I 9.S S %.<.x.> > > : A 7 % % % % % S N t.T '.].[.",
"{.}.|.*.&.: > > > > j U S % % o.x a.>.> > C &.< F.% % o.% P ~ : : : M  X",
".XXXI > > > > > > > j V.} F.% % S oXi > > > > d.x % f A.P OX: 0 ^ M > j ",
"+X@XY.: > > > > > > > W V.0.} f c.P #X> > > > > $X$ 9.9 p j p A %X6.#X> ",
"&X*X$X: > > > > W > > > ,.i Z.g.=Xi j > > > > > >.M i j > > , t % / u.+.",
"-X;X:X: > > > l >Xi > > > : q 9 > > > > > > > > > > j j > > M 4.F.v ^ j ",
",X~.<X_ Z C #.*.M.m i > > > : #.u W > > > > > C #.| 1Xm i > : #.; ~ i V."
};
