/* XPM */
static char *dad187c4348042f1e791def58ace03efcyn5hFNjeCSiyS9C[] = {
/* columns rows colors chars-per-pixel */
"36 36 216 2 ",
"   c #0A0408",
".  c #130002",
"X  c #12060A",
"o  c #07130B",
"O  c #180E18",
"+  c #0C1114",
"@  c #1A1819",
"#  c #110F10",
"$  c #2D0006",
"%  c #380001",
"&  c #3C0C13",
"*  c #301317",
"=  c #19211B",
"-  c #23241E",
";  c #39231D",
":  c #281B23",
">  c #230E20",
",  c #1E2B24",
"<  c #232523",
"1  c #262926",
"2  c #2B2C2C",
"3  c #292828",
"4  c #382528",
"5  c #2A322D",
"6  c #31322D",
"7  c #352E33",
"8  c #2E3431",
"9  c #343432",
"0  c #353A35",
"q  c #3C3A36",
"w  c #363A3A",
"e  c #3C3C3B",
"r  c #393439",
"t  c #4C0E19",
"y  c #4A1819",
"u  c #56191E",
"i  c #51090B",
"p  c #4E261F",
"a  c #4B1B26",
"s  c #541C27",
"d  c #550820",
"f  c #661D25",
"g  c #721B25",
"h  c #47262A",
"j  c #5C272A",
"k  c #4A2D32",
"l  c #532B34",
"z  c #433B3C",
"x  c #483737",
"c  c #58353B",
"v  c #662529",
"b  c #642A31",
"n  c #792A36",
"m  c #68363A",
"M  c #77363C",
"N  c #7B2F2B",
"B  c #3D413C",
"V  c #33433C",
"C  c #42433D",
"Z  c #46493F",
"A  c #3E3D41",
"S  c #4A3D44",
"D  c #583B43",
"F  c #613E43",
"G  c #693A43",
"H  c #793943",
"J  c #3D4945",
"K  c #434443",
"L  c #4C4444",
"P  c #454B45",
"I  c #4A4B46",
"U  c #464B4A",
"Y  c #4B4D4B",
"T  c #48434A",
"R  c #514D4A",
"E  c #5A484B",
"W  c #4D514C",
"Q  c #44524A",
"!  c #52534E",
"~  c #544C52",
"^  c #4D5351",
"/  c #4C5952",
"(  c #535553",
")  c #5C5454",
"_  c #555955",
"`  c #5B5B55",
"'  c #5B5D5B",
"]  c #57585A",
"[  c #6A474B",
"{  c #724346",
"}  c #6C5C5D",
"|  c #64595C",
" . c #775A5F",
".. c #704F52",
"X. c #5E615D",
"o. c #5C6055",
"O. c #63655D",
"+. c #64695F",
"@. c #5D5662",
"#. c #675C62",
"$. c #755F60",
"%. c #5D6362",
"&. c #636562",
"*. c #6A6462",
"=. c #656A65",
"-. c #6A6C66",
";. c #6C666A",
":. c #64696A",
">. c #6A6D6A",
",. c #736D6D",
"<. c #746666",
"1. c #6D716E",
"2. c #66726F",
"3. c #73726E",
"4. c #78756C",
"5. c #6E7372",
"6. c #6D7875",
"7. c #737472",
"8. c #7C7574",
"9. c #757A75",
"0. c #7A7B76",
"q. c #757A7A",
"w. c #7B7D7B",
"e. c #78777C",
"r. c #6D6A70",
"t. c #88333A",
"y. c #902B31",
"u. c #BA343B",
"i. c #BE293A",
"p. c #9E453A",
"a. c #872B41",
"s. c #853A46",
"d. c #993546",
"f. c #B73645",
"g. c #AE394A",
"h. c #C53849",
"j. c #CC3548",
"k. c #86454C",
"l. c #974A53",
"z. c #AB434A",
"x. c #B7454A",
"c. c #A44B5C",
"v. c #B74D56",
"b. c #B9514B",
"n. c #B15764",
"m. c #837B7B",
"M. c #8C7273",
"N. c #C5424B",
"B. c #CA4553",
"V. c #C55466",
"C. c #7E817D",
"Z. c #76807B",
"A. c #6F8078",
"S. c #81827E",
"D. c #938079",
"F. c #7B7C82",
"G. c #857E81",
"H. c #927C86",
"J. c #7D8582",
"K. c #7B8685",
"L. c #838583",
"P. c #858984",
"I. c #898B85",
"U. c #8A8C8A",
"Y. c #898688",
"T. c #928D8B",
"R. c #908586",
"E. c #8E918D",
"W. c #87948D",
"Q. c #92928B",
"!. c #98958F",
"~. c #8D9591",
"^. c #939592",
"/. c #959A95",
"(. c #9B9D9B",
"). c #979998",
"_. c #888E93",
"`. c #9DA19D",
"'. c #A2A29E",
"]. c #A2A4A1",
"[. c #A6A9A5",
"{. c #ABACA5",
"}. c #AAACAA",
"|. c #A5A8AA",
" X c #B2ABAB",
".X c #ADB1A9",
"XX c #B3B5AD",
"oX c #B3B4B2",
"OX c #B9BBB7",
"+X c #ADADB2",
"@X c #AA989B",
"#X c #D6A9A9",
"$X c #D1B1B2",
"%X c #DEA2A3",
"&X c #BEC2BA",
"*X c #C6C6BF",
"=X c #BFC1C0",
"-X c #C4C6C1",
";X c #CACCC5",
":X c #C9CDCA",
">X c #CED1CB",
",X c #D2D5CD",
"<X c #DBD7CD",
"1X c #D3D5D2",
"2X c #D6D9D4",
"3X c #DADDD5",
"4X c #DADCDA",
"5X c #CCD8D2",
"6X c #E1DFD2",
"7X c #DDE1DB",
"8X c #E4E3DB",
"9X c #DEE2E1",
"0X c #E5E7E2",
"qX c #FDFFFD",
"wX c #F7F9F6",
"eX c #EDF0ED",
/* pixels */
"2X;X1X2X0X2X8X,X,X,X3X;X;X;X3X2X0XXX_ &X8X-X,X3X,X8X6X6X<X<X8X<X8X0X<X*X",
"[._ 7.L.P.w.0.{.XX.X&XXX.XXX[.OX/.I # X.L.{.oX[.XXQ.!.Q.T.R.8.T.!.T.m.R ",
"OX&.@ @ 1 < 0 P.o.o.O./.O.O.B Q.Z C ).6 3 w.( Y ;.L.e r e ~ r 3 - 3 z K ",
"0X' B ' X.e ! +.&X7X+.+.` 3XS.I C.{.,XXX3.K L.U.] r.@.F.#.S T r ~ 7 3 ~ ",
"0XX.B &._ Y ( 0.3XOX-.-.I.XX7.W L.XXOX-X0.' }.w.] e.;.Y.] T r r K 7 3 ] ",
"4X&.1 I I 1 W >.W X.Z Q.I ` # ! =.7.XXC.' _ 7.K S G.r ( 9 T ] 7 z : z ~ ",
"7X&.2 9 K e B C.+._ 4.I.7.W ` P.! < I 6 q U.` C m.3.*.L R 3.q x 4 l c D ",
"0X7.^.U.S.).P.B X.-.` Z +.Q.'.S.1.P.P.).I B Y ` S z (.;X{.4.; c j j j m ",
"4XP.C.=.w.-.U.=.6 - 2 q L - @ Y K =.^.0.W ! 7.7.L ;.) z O.M.y f y.g u k.",
":XS.w.}.1X.XP.&.1 E.X.- @ -.O.- ( S.P.0.O.P.}.oXY.r z ,.- M.v d.x.z.v H ",
"0X7.`.-XOXoXL.! 0.qX`.= , 5X:X2 K G.).^.T oXA w OXO +X9X0 <.k.n.z.z.n { ",
":X1.>.P.(.=.7.&.R [.2.5 o 6.>.# | m.@XH.<.Y.|.).r.T U q.= m.b n z.N t { ",
"2X1.`.P.w.P.].X.6 < 1 V A.w 3 E c k M.[ F E :.:.F._.] / / <.m M j j m { ",
"7X>.&.w.7.>.>.6 L ' J 6.^.R.c a t M g n t s x 8.q.6.K./.Q 6 { H M { ..[ ",
">X1.P I 1.( I Y q U.X.%.R.D d a.g.h.j.j.h.y.i p 8.q.K.K.V ` m v t.v F <.",
"2X&.7.]./.).7.! R U.5.>.D & d.V.f.B.h.h.f.v.l.y 7 q.6.Z.B ! { l.c.k.[ } ",
"4X>.' ).E.Y.! K ` ^.e.m.4 b g.f.z.g f f a a h : 2 K.J.P.P *.F k.n.s.c <.",
"0XS.K _ P.W K ! _ /.L.<.* M N.h.t.% $ . . O # @ @ 5.P.U.V w.[ a s.t l } ",
"C.< e.I K W &.=._ 9.,.) l c.j.i.n.%X#X$X$.X X # @ ;.T.Y.P 9.} [ c [ $.k ",
"1 1 K w 1.I K L._ U T D c c.j.j.V.%X#X#X} O O   : | Y.>./ 9.E l G l c x ",
"1X>.0 P.[.w.e e.W &.' m.* n h.i.d.% $ . > O > O + 2.L.J.Q 8.F H c.a.l } ",
"2XX.1.}.(.].' =.-.' 7.,.x u v.N.z.g f s s a l > + Z.J.L.Q *. .l.c.t.c <.",
">X1.w Y.].C.w 7.L.! e.' Y . N b.x.u.u.u.x.v.s.& z 0.w.C.1.L.k G H t h } ",
"2X1.0 w =.K 9 ' -.w.%.U./.z & N p.x.N.N.N.y.i ..!.9.Y.L.W.Z.L c c k E | ",
"2X7.U.P.U.Y.).W ' w.^ ~.U.*.x ; y m m s j & h H.,.3.&.&.~.9.>.7.<.*.8.) ",
"1Xw.X.&.`.X.7.9.0 S._ W &.0 9 | ) 4 4 x x ) R.8.9.R I ! 0 ~._ 7.-X7.&.0.",
":XP.S.).[.}.E.' P.' U.8 5 7.0.z L #.R G.)  Xm.m.S.< '.oX_ _ P.wXqX4X0.3.",
"1X0.).(.[.`.Y.>.w.9 C.B K P.S.e ) | R m.q  X! 2 '.e oX*X&.K `.eX0X XC.7.",
"2XL.9.>.}.&.&.0.C /.W I I 6 C z *.&.e 7.-.9.oXoXq.( K &.U (.( w.oX3.&.9.",
"2X1.^.' &.q.0.E.E.-.L.3.K Y _ I ( &.( ' &.%.&.9.%.5.5.>.9.U.q.-.-._ w.7.",
"7X-.U ' _ X.I _ &.( -.P Y &.&.&.>.5.J.=._ U 5./.U Y L.5.&.W ' >._ >.-.! ",
"2X=.< 1 U 1 ! U.Y.XX1.^.' -.&.P.P 5 _ 0 / J.%.' ~.6.W 9.X.K U Y w.U I ( ",
"2X&.< &.7.K ( 3.-XwXQ.3.&.U.E.-._ 9.).W._ 9 L.).] :.U ' U _ Y =XqX2X( ( ",
"3X_ w F.7.K C -XwXwX;X1.(.- ' ^.' Y.~./.U X.9X:X_ :.' _ J ^ %.wXqXwX5.W ",
"0X' 1 e K @ ! 9.^.{.-.7.e Y.0.' ] 9.].9.e U U.&.9 5.%._ K _ U 9.4X^.e ^ ",
"OXX.2 2 2 3 K /.w.L.Y.}.7.E.0.).Y 1 ' @ 8 |.1.^ `.q.U q.( Y ^ W w K ( Y "
};
