/* XPM */
static char *fdaefb16c12d4e50a2654dc7983acab7Cmbi7HXrbfeteli9[] = {
/* columns rows colors chars-per-pixel */
"36 36 202 2 ",
"   c #141A1D",
".  c #17232A",
"X  c #18272F",
"o  c #182933",
"O  c #1A2F3A",
"+  c #1B313C",
"@  c #2A2829",
"#  c #302B2D",
"$  c #342E30",
"%  c #353235",
"&  c #47263A",
"*  c #49273A",
"=  c #4B2A3C",
"-  c #6F202F",
";  c #6F2130",
":  c #6D253C",
">  c #712533",
",  c #732F3F",
"<  c #1D3544",
"1  c #1D3847",
"2  c #1F3A4A",
"3  c #3C2E43",
"4  c #213C4C",
"5  c #293A4C",
"6  c #34334B",
"7  c #3A394F",
"8  c #223C53",
"9  c #263F5E",
"0  c #2A1C7D",
"q  c #4B2C43",
"w  c #4A2D4C",
"e  c #493D4F",
"r  c #523645",
"t  c #4A3756",
"y  c #583D51",
"u  c #6B2C4C",
"i  c #783B4A",
"p  c #49346A",
"a  c #4E3D7C",
"s  c #5A3E7F",
"d  c #65376F",
"f  c #633D7D",
"g  c #28404E",
"h  c #324956",
"j  c #354956",
"k  c #3C525E",
"l  c #2A4268",
"z  c #314965",
"x  c #3F5461",
"c  c #2D4470",
"v  c #5B444B",
"b  c #5B4655",
"n  c #42545F",
"m  c #51525A",
"M  c #614948",
"N  c #744A54",
"B  c #425762",
"V  c #4B5D68",
"C  c #575666",
"Z  c #5E5D6C",
"A  c #4E5A73",
"S  c #604B60",
"D  c #6D5768",
"F  c #6E5E75",
"G  c #54646C",
"H  c #556671",
"J  c #60606E",
"K  c #74646C",
"L  c #676A75",
"P  c #796974",
"I  c #76787C",
"U  c #A44723",
"Y  c #A44925",
"T  c #A54D2A",
"R  c #A4593E",
"E  c #954E43",
"W  c #9D5E44",
"Q  c #A65D42",
"!  c #9F644C",
"~  c #9A6957",
"^  c #A76349",
"/  c #AD6C54",
"(  c #855A62",
")  c #897679",
"_  c #A67668",
"`  c #B27860",
"'  c #A77D7A",
"]  c #A88376",
"[  c #3B2D80",
"{  c #3D3389",
"}  c #342C95",
"|  c #413686",
" . c #543E80",
".. c #473F9B",
"X. c #623F84",
"o. c #374A8B",
"O. c #3D4F9B",
"+. c #4F4082",
"@. c #4F4289",
"#. c #51428A",
"$. c #554688",
"%. c #4B4192",
"&. c #584D90",
"*. c #475798",
"=. c #5F5C9D",
"-. c #7D5481",
";. c #7A5D90",
":. c #786F88",
">. c #6E7A81",
",. c #7F7E84",
"<. c #454AA8",
"1. c #524CA5",
"2. c #5E4FAB",
"3. c #4152A6",
"4. c #4653AF",
"5. c #4647B9",
"6. c #4756B6",
"7. c #5753B9",
"8. c #6053A5",
"9. c #766AAC",
"0. c #6A6FB0",
"q. c #6E73BC",
"w. c #7D7EB5",
"e. c #4E58C1",
"r. c #5456C3",
"t. c #515BCD",
"y. c #555DD4",
"u. c #565FDA",
"i. c #5760CB",
"p. c #5A62D5",
"a. c #5760DB",
"s. c #5961D9",
"d. c #666ECE",
"f. c #7076CF",
"g. c #636AD1",
"h. c #836885",
"j. c #887A85",
"k. c #897B8A",
"l. c #957A84",
"z. c #827B96",
"x. c #798287",
"c. c #7F82B0",
"v. c #858585",
"b. c #89868A",
"n. c #8B8B8B",
"m. c #918A88",
"M. c #878897",
"N. c #8D8D93",
"B. c #93839A",
"V. c #8D9196",
"C. c #949494",
"Z. c #9C9495",
"A. c #959599",
"S. c #9B9B9B",
"D. c #A38385",
"F. c #A38D87",
"G. c #B28F82",
"H. c #A89698",
"J. c #AFA29D",
"K. c #BCA095",
"L. c #978DA8",
"P. c #9397A6",
"I. c #9C9EA2",
"U. c #9B9BAB",
"Y. c #8589B5",
"T. c #8F92B0",
"R. c #9899B7",
"E. c #9FA0A0",
"W. c #9CA3B5",
"Q. c #9FA8BC",
"!. c #A4A4A4",
"~. c #A9A7A7",
"^. c #A3A4AB",
"/. c #AAABAB",
"(. c #B4ABA8",
"). c #A6AAB9",
"_. c #B2AFB1",
"`. c #AEB0B1",
"'. c #B4B4B4",
"]. c #B7B7BA",
"[. c #B8B8B9",
"{. c #BBBBBB",
"}. c #BDBDBD",
"|. c #BFBFBF",
" X c #C0BEBE",
".X c #8D90C3",
"XX c #898ED3",
"oX c #9DA8C0",
"OX c #A4ADC3",
"+X c #A1ADCA",
"@X c #A8B1C6",
"#X c #A5B1CC",
"$X c #AFB8CB",
"%X c #B8B9C2",
"&X c #A7B5D2",
"*X c #BFC0C8",
"=X c #C0C1C1",
"-X c #C2C3C3",
";X c #C3C3C3",
":X c #C6C6C6",
">X c #C8C8C8",
",X c #C9C9C9",
/* pixels */
",X!.v.|.{.v./.:Xn.C.,X!.v.|.{.v./.,Xn.C.,X!.v.|.'.v./.:Xn.C.,X!.v.|.'.v.",
"C.~.'.S.S.'.~.C.'./.C./.'.S.S.'.~.S.'./.C.~.'.S.S.'.~.C.'./.C./.'.S.S.'.",
"C.~.'.S.S.'.~.S././.S./.`.n.N./.A.b.^./.S./.'.S.S.'.~.S.'./.S./.'.S.!.'.",
",X!.b.{.'.v./.:XC.C.:XI.L V B j x V n x.;X!.b.{.'.v./.;Xn.C.:X!.b.|.'.v.",
"n./.{.C.S.|.~.C.'.'.n.>.k 4 1 2 2 2 4 x I ~.{.C.S.|.!.C.'.'.n./.{.C.S.|.",
"!.~./.!.!./.~.!./.!.L j < X X + 2 2 2 2 h >.~.!.!./.~.!././.!.~./.!.!./.",
":X~.b.{.'.b./.;XC.n.H + .     . + 2 2 2 4 h G '.'.v./.;XC.S.:X!.b.{.'.b.",
"b./.*XC.C.;X!.n.{./.B o         o 2 2 2 2 B M.n.S.;X!.n.{.'.b./.;XC.S.;X",
"/.~.!./.~.!.~./.~.S.V o $ M @   o 2 2 2 4 G S./.~.!.~./.~.~./.~.!./.~.!.",
";X~.n.'.'.n./.|.C.N.H o % N #   o 2 2 2 4 V n.{.'.n./.|.C.S.|.!.n.{.'.n.",
"v.~.;XC.C.:X!.b.|.`.n O % M v % O 2 2 2 h x.|.C.C.:X!.b.{.'.v./.;Xn.S.:X",
"'.~.S././.S.~.'.S.S.>.h m ' ' m 2 2 < 4 H M.T.R.^.S./.'.S.!.'.!.S././.S.",
"{.~.C.'./.C./.'.S.S.I.G 5 j j g 1 + o < z *.i.f.R.C./.'.S.S.{.!.C.'./.C.",
"v./.:XN.C.:X!.b.].^.A 5 o 1 2 2 + o < 9 O.t.u.p.Y.%X!.v.|.'.v./.:Xn.C.:X",
"{.~.C.'.`.C./.[.M.&.<.o.8 2 2 2 1 < l 3.y.u.u.a.g.c./.'.S.S.{.!.C.'./.C.",
"'.~.S././.S.~.'.M.| 5.t.O.9 4 8 8 c 4.y.u.u.u.u.s.w.~.'.S.!.'.~.S././.S.",
"v./.;XC.C.:X!.b.U.%.5.u.t.3.l o.4.6.y.u.s.s.s.u.s.XXI.b.|.'.v./.;Xn.S.:X",
";X~.n.'.'.n./.|.M.[ } 5.y.t.4.e.y.y.y.p.XXY.0.p.u.d..X].C.S.|.!.n.{.'.n.",
"/.~.!./.~.!.~./.M.| 0 [  .f f f s +.+.$.z.~.T.g.u.u.f.^.~.~./.~.!./.~.!.",
"b./.;XC.C.;X!.I P p { ..#.X.X.X.$.#.@.#.=.R.$Xw.;.-.h.n.{.'.b./.;XC.S.;X",
":X~.b.{.'.b.n.K q q 1.u.u.u.u.u.u.u.u.u.s.q.N.(./ U Q G.m.S.:X!.b.{.'.b.",
"!.~./.!.!.~.P y S t 1.u.u.u.u.u.u.u.u.u.a.d.Y.Z.^ U U Q H./.!.~./.!.!./.",
"n.~.{.C.S.{.k.:.T.F &.r.u.u.u.u.u.u.a.u.7.2.9.b.W R Q R J.'.n./.{.C.S.|.",
",X!.v.{.{.N.W.+XoXN.F a 7.7.y.u.u.y.7.2.d : i D._ D.D.^ ) A.:X!.b.|.'.v.",
"C.~.'.I.^.OX#X#X@XA.b q w t 1.g.g.8.u u : > > i l.).H.~ J./.S./.'.S.!.'.",
"C.~.[.U.Q.#X#XOXI.D = * * * t z.U.k.i > > > ; , B.&X).Z._./.C./.'.S.S.'.",
",X~.V.@X#XP./.;Xj.r * * * = r K /. X) i > > > i L.&X$X;Xn.C.:X!.b.|.'.v.",
"C./.|.P.I.{.~.C.S.b * * = r P _.!.C.'.H.N - i B.OX&XQ.C.'._.C./.{.C.S.{.",
"S.~./.!.!./.~.S.Z.v & * v j.S./.~.S./.~.( > N R.#X).^.E././.S.~./.!.!./.",
":X!.b.{.'.b./.;Xv.e 3 3 m '.'.b./.;XC.C.H.l.B.R.k.) /.;XC.C.:X!.b.|.'.b.",
"b.~.|.C.S.;X!.,.L e 6 6 Z b.S.;X!.n.].'.n.F.' _ E ] !.n.{.'.b./.|.C.S.;X",
"~.~.~.~.~.~.b.C 7 6 6 6 C S.~.~.~.~.~.~.~.] T U T _ ~.~.~.~.~.~.~.~.~.~.",
";X~.n.{.'.b.,.L Z Z L J L '.'.b./.|.C.S.|.] Y U Y ~ /.|.C.S.;X!.n.{.'.b.",
"v./.;XC.C.:X!.v.'.'.v.~.%XC.C.:X!.b.{.'.b.F.` W ! K.!.b.|.'.v./.;XC.S.;X",
"/.~.S././.S.~./.!.!./.~.S././.S.~./.!.!./.!.Z.~.~.S.~./.!.!./.~.S././.S.",
":X!.b.{.'.b./.;XC.C.;X!.n.{.'.b./.;XC.S.;X!.n.{.'.b./.;XC.S.;X!.n.{.'.b."
};
