/* XPM */
static char *_a53090ceb654395840d455f93cac4cc7PyeijK3ukQZXnW2[] = {
/* columns rows colors chars-per-pixel */
"36 36 97 2 ",
"   c #211F1F",
".  c #2E2C2C",
"X  c #312F2E",
"o  c #31302E",
"O  c #363433",
"+  c #383636",
"@  c #393835",
"#  c #3E3D3B",
"$  c #413F3F",
"%  c #43423E",
"&  c #454542",
"*  c #4A4A45",
"=  c #474848",
"-  c #4E4E4A",
";  c #4F5049",
":  c #51524C",
">  c #555552",
",  c #575953",
"<  c #5A5B54",
"1  c #5C5D5B",
"2  c #5F615B",
"3  c #62645C",
"4  c #696B5E",
"5  c #5F6060",
"6  c #636563",
"7  c #676962",
"8  c #6A6D64",
"9  c #6B6C6B",
"0  c #6E7166",
"q  c #6F716E",
"w  c #737865",
"e  c #71746C",
"r  c #767A6D",
"t  c #7A7D6E",
"y  c #727571",
"u  c #767973",
"i  c #7A7D75",
"p  c #7C7F78",
"a  c #7E836F",
"s  c #7D8174",
"d  c #7E8279",
"f  c #82866F",
"g  c #818575",
"h  c #868873",
"j  c #8A8E76",
"k  c #81857C",
"l  c #858A7E",
"z  c #8A8E7D",
"x  c #8C917E",
"c  c #92967E",
"v  c #878C80",
"b  c #898E82",
"n  c #8D9284",
"m  c #919686",
"M  c #949983",
"N  c #999D83",
"B  c #919788",
"V  c #969C8C",
"C  c #989F8D",
"Z  c #9BA18E",
"A  c #9DA491",
"S  c #A1A68B",
"D  c #A7AC8E",
"F  c #A1A691",
"G  c #A4AB95",
"H  c #A8AE96",
"J  c #A8AF98",
"K  c #ABB197",
"L  c #ABB29A",
"P  c #ACB39A",
"I  c #ADB49B",
"U  c #B1B69B",
"Y  c #B1B79D",
"T  c #B1B89D",
"R  c #B3BA9F",
"E  c #B7BD9F",
"W  c #B5BCA0",
"Q  c #B7BEA1",
"!  c #B8BFA2",
"~  c #BBC0A3",
"^  c #BEC4A2",
"/  c #BCC2A4",
"(  c #BEC5A6",
")  c #C0C7A7",
"_  c #C3CAA7",
"`  c #C3CAA9",
"'  c #C4CBA9",
"]  c #C5CCAA",
"[  c #C7CEAB",
"{  c #C9CFAC",
"}  c #C9D0AD",
"|  c #CCD3AF",
" . c #CDD4AF",
".. c #CED5B0",
"X. c #D0D7B1",
"o. c #D2D9B3",
"O. c #D3DAB4",
/* pixels */
"4 ~ X.} T l , = 8 n V B 8 * G ..X.` Z i 5 3 h j k y 9 9 9 9 9 9 q n V V ",
"f o.o.o.] Z p > < k V V l e ^ o.o...T k i F { } Y b e y l B n p y n C V ",
"w } o. .! A B e & 3 V B v m ! ..o.' F k V } o.o.} G k m ! | ` F k v B C ",
"< J ` ~ A V n 7 : t G V u y B ~ ` G d d G ] X.X.` G V T ..o.o.` V 9 d n ",
"= k V V B n e & h _ } ! m y y n V k y d V L ] _ C z B T | o.X.( k & < q ",
"& y p p p y 6 * M o.o...W n q q u l n k k B C x - # 0 C W ] E x : @ < 9 ",
"= n U T G e - g ^ o.o.o.) B q 9 k B V B l 9 - & X . # e Z z < < x g q 9 ",
"4 / X.o.} G s Z ' X.X.' L n y k B V V V B u < 7 0 8 < : 3 r r N ] / B y ",
"f O.X.X.o.} G C J T T L B d y n V V V V V B n P W T m : - m ~ ..o.| G p ",
"w ] X.o. .! A b l u 8 7 8 9 q n C V V V V V G { o...L < , H ..o.o.| G p ",
"3 L ( ( ! A b y 1 : : : , q q k B C V V B b V W ) ( G 7 3 G ` X...) F d ",
"2 V A A Z n y 1 - e K T Z n u e k n n n k q y n Z Z B u u B H ` ) G n i ",
"< d n z d 8 1 $ 7 K  .../ Z n y u d p y 9 9 9 y n Z b u 9 e z n n l u 9 ",
"6 q 7 - & # @ X 0 W |  .( A n d G ~ G k 9 9 9 y V ! ( G 8 # # % & - 3 9 ",
"6 u m N M s 0 % 8 A J J G B l H { o.} H d 9 q n W  .o.{ Z , O 2 c N i 9 ",
"6 b ) o...~ Z r < r V V V B m ) o.o.X.W B d y C ] o.o.o.W 0 - F | ..U k ",
"6 V ..o.o.} G B : % 0 d k l V Y } o.` H C b u B T } o.` n 3 t ] o.o.} V ",
"9 F ..o.o.} G v < : t m s 2 d V Y ~ J Z B d y k V Y ~ H 4 : C / ..X./ b ",
"p H ] o...( A i p H }  .H , 1 k V Z z r e 9 9 e n Z Z B 7 > b F / ( G l ",
"u V L ' ( F n u Z { o.o.) g # > u s < % < p p i n B n p 9 q d B B B n n ",
"< k B C Z C k y n W } } ~ s % # % % > r Z ( ! A V d y q k V C V p y y u ",
"3 v u y v W ! Z V A F Z l , r s i 8 u G { o...) A n u p G ` ' ~ n u l m ",
"a H d p I  .o.` H V r - > r B C V n B Y ..o.o.{ G V p k T X.o.] A n I ( ",
"j ~ v l ] o.o...P V 3 # e B V V V V V G ~ ..} T A V p k Y ..{ I Z A ) o.",
"t L p 8 U ..../ G V 3 : m V V V V V V V G T I A V v y u C W I Z V Z I ] ",
"7 Z 0 * V W ~ G V V 3 * l V V V V V n v n C V b l d p p k n V C m r e Z ",
"7 B 7 & l Z A C V B 7 - e b V C V n p 9 u b l y i V G Z v d b m C 4 : 4 ",
"< p > + 3 s k n n d 9 7 y p n n n d y y q 9 9 u V ( } W Z b p n ( ( Z 4 ",
"o - > # % & - 7 y 9 9 k B n u 9 y l B V v q e m ( ..o.| T V Z ( ..o.] F ",
"# - 3 S D D S i 9 9 n ~ ! A k - e V T ` T b u C ` o.o...T V G } o.o.| I ",
". : m  .O.o.} Z u n / o.| W n & r Y } o.} Y n V L ] ..~ V p l P } | T A ",
"  , H ..o.| W A n Z ( X.{ I n & t / o.o.o.` A V Z L I V d k k v J I A v ",
"  , A W W T A V V V H W I A z & r P ] o.{ I Z V V V b k b V m k k k 8 > ",
". 1 n C Z C V V V V Z Z C C z % < n I ( T V n V V V l b V V V n 9 > : ; ",
"= 9 u b n V V n n n n n V B r & # 3 i s k k y b V V n b B V C n 1 : i B ",
"= 6 6 6 9 l z q 6 6 6 e v u & - > # o o & 6 6 9 k z e 6 u v n r & 8 z n "
};
